# xmcd
#
# Track frame offsets:
#	150
#	18450
#	34601
#	52098
#	74447
#	93618
#	111247
#	129171
#	144477
#	167504
#	188360
#	206804
#
# Disc length: 3023 seconds
#
# Revision: 0
# Processed by: cddbd v1.5.2PL0 Copyright (c) Steve Scherf et al.
# Submitted via: dBpowerAMP V4.0
#
DISCID=a50bcd0c
DTITLE=Jose Cabezas - Peaceful Dove
DYEAR=1900
DGENRE=Country
TTITLE0=01 - Reflection
TTITLE1=02 - Two Mountains
TTITLE2=03 - Solitude
TTITLE3=04 - Peaceful Dove
TTITLE4=05 - Insian Song
TTITLE5=06 - Bunny
TTITLE6=07 - Huajra
TTITLE7=08 - Longuita Otavalena
TTITLE8=09 - Inside My Soul
TTITLE9=10 - The Angel That I Dreamed Of
TTITLE10=11 - Taquirari De Verano
TTITLE11=12 - The Moment
EXTD=
EXTT0=
EXTT1=
EXTT2=
EXTT3=
EXTT4=
EXTT5=
EXTT6=
EXTT7=
EXTT8=
EXTT9=
EXTT10=
EXTT11=
PLAYORDER=
